<svg fill="none" height="48" viewBox="0 0 48 48" width="48" xmlns="http://www.w3.org/2000/svg"><g fill="#222"><path d="m22.7696 17.7421-6.1.9384c-.0976.015-.1696.099-.1696.1977v4.9218c0 .1105.0895.2.2.2h6.1c.1105 0 .2-.0895.2-.2v-5.8602c0-.1226-.1093-.2164-.2304-.1977z"/><path d="m24 23.8v-6.134c0-.0963.0685-.1789.1631-.1966l7.6-1.425c.1231-.0231.2369.0714.2369.1966v7.559c0 .1105-.0895.2-.2.2h-7.6c-.1105 0-.2-.0895-.2-.2z"/><path d="m16.5 29.9863v-4.7863c0-.1105.0895-.2.2-.2h6.1c.1105 0 .2.0895.2.2v5.7248c0 .1226-.1093.2163-.2304.1977l-6.1-.9385c-.0976-.015-.1696-.099-.1696-.1977z"/><path d="m24 31.3234v-6.1234c0-.1105.0895-.2.2-.2h7.6c.1105 0 .2.0895.2.2v7.0734c0 .1203-.1054.2134-.2248.1985l-7.6-.95c-.1001-.0125-.1752-.0976-.1752-.1985z"/></g></svg>